<?xml version="1.0" encoding="UTF-8"?>
<svg xmlns="http://www.w3.org/2000/svg" viewBox="0 0 1200 900">
  <defs>
    <linearGradient id="screen" x1="0" x2="1">
      <stop offset="0%" stop-color="#23243f"/>
      <stop offset="100%" stop-color="#1a1b33"/>
    </linearGradient>
    <filter id="shadow" x="-20%" y="-20%" width="140%" height="140%">
      <feGaussianBlur stdDeviation="12"/>
    </filter>
  </defs>

  <rect width="100%" height="100%" fill="#f7f7fb"/>

  <ellipse cx="600" cy="540" rx="180" ry="25" fill="#d9cef7" opacity="0.5"/>

  <g transform="translate(450 220)">
    <rect x="70" y="40" width="250" height="220" rx="35" fill="#f4f1f2"/>
    <rect x="95" y="65" width="200" height="170" rx="25" fill="url(#screen)"/>

    <circle cx="145" cy="255" r="8" fill="#ff7f8f"/>
    <circle cx="170" cy="255" r="8" fill="#7fe3b8"/>
    <circle cx="195" cy="255" r="8" fill="#ffd36e"/>

    <rect x="140" y="125" width="16" height="16" fill="#9ff7ef"/>
    <rect x="235" y="125" width="16" height="16" fill="#9ff7ef"/>

    <path d="M155 190 Q195 160 235 190" stroke="#9ff7ef" stroke-width="8" fill="none"/>

    <path d="M75 120 C20 120 10 230 75 250" stroke="#50527d" stroke-width="22" fill="none" stroke-linecap="round"/>
    <path d="M320 120 C375 120 385 230 320 250" stroke="#50527d" stroke-width="22" fill="none" stroke-linecap="round"/>

    <path d="M120 270 L90 330" stroke="#50527d" stroke-width="20" stroke-linecap="round"/>
    <path d="M270 270 L300 330" stroke="#50527d" stroke-width="20" stroke-linecap="round"/>

    <circle cx="85" cy="340" r="28" fill="#66688f"/>
    <circle cx="305" cy="340" r="28" fill="#66688f"/>

    <line x1="250" y1="25" x2="270" y2="-20" stroke="#50527d" stroke-width="8"/>
    <circle cx="270" cy="-20" r="12" fill="#6d6fe8"/>
  </g>

  <g fill="#8b7cf0">
    <circle cx="410" cy="260" r="24"/>
    <circle cx="840" cy="320" r="20"/>
  </g>

  <text x="600" y="700" text-anchor="middle"
        font-family="Arial, sans-serif"
        font-size="52" font-weight="700"
        fill="#1f2248">This page didn't load</text>

  <text x="600" y="760" text-anchor="middle"
        font-family="Arial, sans-serif"
        font-size="24"
        fill="#70738a">Something went wrong on our end.</text>

  <text x="600" y="795" text-anchor="middle"
        font-family="Arial, sans-serif"
        font-size="24"
        fill="#70738a">You can try refreshing or head back home.</text>
</svg>
